<svg width="532" height="563" viewBox="0 0 532 563" fill="none" xmlns="http://www.w3.org/2000/svg">
<path d="M211.333 3.86666C97.4667 35.3333 16.5333 129.2 1.99999 246.667C-1.17354e-05 263.067 0.399988 296.133 2.66666 314.133C11.2 378.667 38.2667 433.867 83.8667 479.467C138 533.6 208.133 562.667 284.4 562.667C348 562.667 404.133 544 455.867 505.6C481.6 486.533 514.8 449.733 527.6 426C531.6 418.8 532 416.933 532 406.667C532 396.933 531.467 394.4 528.267 388.4C523.467 379.067 516.533 372.4 507.467 368.267C500.933 365.333 497.467 364.667 479.333 363.867C468 363.333 454.533 362.133 449.333 361.333C354.4 346.4 280.933 276.133 260.533 180.667C257.733 167.6 257.333 162.667 257.333 136C257.467 102.8 259.067 91.6 267.733 65.4667C275.333 42.4 272.933 26 260 12.8C247.867 0.533324 233.2 -2.13334 211.333 3.86666ZM205.2 79.7333C186.4 172 214 266.133 280 334.533C323.467 379.6 382.267 409.333 445.333 418C454.133 419.2 461.6 420.4 461.867 420.667C462.8 421.733 446.267 439.467 435.333 449.067C403.867 476.667 364.4 495.6 323.467 502.8C301.6 506.667 267.333 506.667 245.467 502.8C195.333 493.867 146.4 466.4 113.867 428.933C86.4 397.333 67.7333 358.533 60.5333 317.867C56.5333 295.6 56.5333 261.733 60.5333 239.467C74.1333 163.6 125.733 98.6667 195.6 69.3333C202.4 66.5333 208 64.2667 208.133 64.4C208.267 64.5333 206.933 71.4667 205.2 79.7333Z" fill="white"/>
<path d="M363.636 129.864V79.4091H378.909V129.864H363.636ZM346.045 112.273V97H396.5V112.273H346.045Z" fill="white"/>
<path d="M486.557 141.974V109.389H496.42V141.974H486.557ZM475.196 130.614V120.75H507.781V130.614H475.196Z" fill="white"/>
<path d="M427.295 260.517V220.574H439.386V260.517H427.295ZM413.369 246.591V234.5H453.312V246.591H413.369Z" fill="white"/>
</svg>
